<?xml version="1.0" standalone="no"?>
<!DOCTYPE svg PUBLIC "-//W3C//DTD SVG 20010904//EN"
 "http://www.w3.org/TR/2001/REC-SVG-20010904/DTD/svg10.dtd">
<svg version="1.0" xmlns="http://www.w3.org/2000/svg"
 width="50.000000pt" height="50.000000pt" viewBox="0 0 50.000000 50.000000"
 preserveAspectRatio="xMidYMid meet">

<g transform="translate(0.000000,50.000000) scale(0.100000,-0.100000)"
fill="#ffffff" stroke="none">
<path d="M187 373 c-58 -4 -59 -5 -75 -43 -11 -25 -24 -40 -34 -40 -10 0 -18
-4 -18 -10 0 -5 5 -10 11 -10 6 0 1 -12 -10 -26 -17 -21 -21 -41 -21 -98 0
-43 5 -77 12 -84 18 -18 45 -15 60 7 12 17 27 19 138 19 111 0 126 -2 138 -19
15 -22 42 -25 60 -7 7 7 12 41 12 84 0 57 -4 77 -21 98 -11 14 -16 26 -10 26
6 0 11 5 11 10 0 6 -8 10 -17 10 -11 0 -24 15 -35 40 -16 39 -18 40 -66 40
-28 0 -56 1 -64 3 -7 2 -39 1 -71 0z m181 -25 c5 -7 13 -23 16 -35 l7 -23
-141 0 -141 0 7 23 c13 44 22 47 134 47 74 0 111 -4 118 -12z m-239 -132 c13
-16 -4 -26 -45 -26 -17 0 -24 6 -24 20 0 15 7 20 29 20 16 0 34 -6 40 -14z
m311 -6 c0 -21 -30 -27 -64 -14 -25 10 0 34 35 34 22 0 29 -5 29 -20z m-90 -9
c0 -11 -88 -19 -150 -13 -86 8 -55 22 50 22 55 0 100 -4 100 -9z m-100 -66
c52 0 110 4 128 8 31 8 33 7 30 -15 l-3 -23 -155 0 -155 0 -3 23 c-3 22 -1 23
30 15 18 -4 76 -8 128 -8z"/>
</g>
</svg>
